<svg xmlns="http://www.w3.org/2000/svg" xmlns:xlink="http://www.w3.org/1999/xlink" version="1.1" data-diagram-type="ACTIVITY" style="width:2107px;height:2014px;background:#FFFFFF;" width="2107px" height="2014px" viewBox="0 0 2107 2014" zoomAndPan="magnify" preserveAspectRatio="none" contentStyleType="text/css"><?plantuml 1.2026.8beta1?><defs/><g font-family="sans-serif" lengthAdjust="spacing"><g class="title" data-source-line="2"><text x="626.259" y="35.421" fill="#000" font-size="22" textLength="852.554" font-weight="700" font-family="Verdana">Vòng đời khoản nợ — Phần 1: Từ phát sinh đến thanh toán trong hạn</text></g><rect x="15" y="59.354" width="2070.071" height="20.953" fill="#FFF" style="stroke:#FFF;stroke-width:1;"/><ellipse cx="260.164" cy="95.308" rx="10" ry="10" fill="#FFF" style="stroke:#000;stroke-width:1;"/><path d="M368.793,115.308 L368.793,146.573 L348.793,150.573 L368.793,154.573 L368.793,185.839 A0,0 0 0 0 368.793,185.839 L626.129,185.839 A0,0 0 0 0 626.129,185.839 L626.129,125.308 L616.129,115.308 L368.793,115.308 A0,0 0 0 0 368.793,115.308" style="stroke:#000;stroke-width:1;" fill="#FFF"/><path d="M616.129,115.308 L616.129,125.308 L626.129,125.308 L616.129,115.308" style="stroke:#000;stroke-width:1;" fill="#FFF"/><text x="374.793" y="132.375" fill="#000" font-size="13" textLength="236.336" font-family="Verdana">Thông tin gồm: khách nợ, hợp đồng,</text><text x="374.793" y="147.507" fill="#000" font-size="13" textLength="218.848" font-family="Verdana">kỳ thanh toán, sản phẩm/dịch vụ,</text><text x="374.793" y="162.64" fill="#000" font-size="13" textLength="178.306" font-family="Verdana">số tiền gốc, Sale phụ trách,</text><text x="374.793" y="177.773" fill="#000" font-size="13" textLength="234.419" font-family="Verdana">thông tin liên hệ, thời hạn, chứng từ</text><rect x="171.534" y="126.604" width="177.26" height="47.938" fill="#FFF" style="stroke:#000;stroke-width:1;" rx="12.5" ry="12.5"/><text x="181.534" y="147.743" fill="#000" font-size="12" textLength="145.26" font-family="Verdana">Tiếp nhận khoản nợ mới</text><text x="181.534" y="161.712" fill="#000" font-size="12" textLength="157.26" font-family="Verdana">từ đồng bộ hoặc nhập liệu</text><rect x="56.531" y="384.339" width="190.684" height="47.938" fill="#FFF" style="stroke:#000;stroke-width:1;" rx="12.5" ry="12.5"/><text x="66.531" y="405.478" fill="#000" font-size="12" textLength="170.684" font-family="Verdana">Loại khoản nợ khỏi hệ thống</text><text x="66.531" y="419.446" fill="#000" font-size="12" textLength="115.283" font-family="Verdana">Ghi lịch sử thay đổi</text><rect x="71.974" y="459.737" width="159.799" height="33.969" fill="#FFF" style="stroke:#000;stroke-width:1;" rx="12.5" ry="12.5"/><text x="81.974" y="480.876" fill="#000" font-size="12" textLength="139.799" font-family="Verdana">Dừng toàn bộ quy trình</text><ellipse cx="151.873" cy="524.706" rx="11" ry="11" fill="none" style="stroke:#000;stroke-width:1;"/><ellipse cx="151.873" cy="524.706" rx="6" ry="6" fill="#FFF" style="stroke:#000;stroke-width:1;"/><path d="M454.991,384.339 L454.991,408.038 L434.991,412.038 L454.991,416.038 L454.991,439.737 A0,0 0 0 0 454.991,439.737 L671.137,439.737 A0,0 0 0 0 671.137,439.737 L671.137,394.339 L661.137,384.339 L454.991,384.339 A0,0 0 0 0 454.991,384.339" style="stroke:#000;stroke-width:1;" fill="#FFF"/><path d="M661.137,384.339 L661.137,394.339 L671.137,394.339 L661.137,384.339" style="stroke:#000;stroke-width:1;" fill="#FFF"/><text x="460.991" y="401.406" fill="#000" font-size="13" textLength="195.146" font-family="Verdana">Cho phép: thiết lập tỷ lệ phạt,</text><text x="460.991" y="416.539" fill="#000" font-size="13" textLength="128.724" font-family="Verdana">bắt đầu xử lý hồ sơ,</text><text x="460.991" y="431.671" fill="#000" font-size="13" textLength="179.34" font-family="Verdana">đưa vào danh sách nhắc nợ</text><rect x="301.917" y="395.054" width="133.074" height="33.969" fill="#FFF" style="stroke:#000;stroke-width:1;" rx="12.5" ry="12.5"/><text x="311.917" y="416.192" fill="#000" font-size="12" textLength="113.074" font-family="Verdana">Ghi nhận xác nhận</text><rect x="165.381" y="609.675" width="189.564" height="33.969" fill="#FFF" style="stroke:#000;stroke-width:1;" rx="12.5" ry="12.5"/><text x="175.381" y="630.813" fill="#000" font-size="12" textLength="169.564" font-family="Verdana">Ghi nhận hồ sơ đã đóng dấu</text><rect x="112.805" y="776.612" width="294.717" height="47.938" fill="#FFF" style="stroke:#000;stroke-width:1;" rx="12.5" ry="12.5"/><text x="122.805" y="797.751" fill="#000" font-size="12" textLength="131.549" font-family="Verdana">Ghi nhận đã gửi hồ sơ</text><text x="122.805" y="811.72" fill="#000" font-size="12" textLength="274.717" font-family="Verdana">Lưu mã vận đơn, ngày gửi, đơn vị vận chuyển</text><rect x="145.011" y="957.377" width="230.305" height="33.969" fill="#FFF" style="stroke:#000;stroke-width:1;" rx="12.5" ry="12.5"/><text x="155.011" y="978.516" fill="#000" font-size="12" textLength="210.305" font-family="Verdana">Ghi nhận hồ sơ đã giao thành công</text><rect x="127.266" y="1011.346" width="265.795" height="47.938" fill="#FFF" style="stroke:#000;stroke-width:1;" rx="12.5" ry="12.5"/><text x="137.266" y="1032.485" fill="#000" font-size="12" textLength="181.676" font-family="Verdana">Tính ngày đến hạn thanh toán</text><text x="137.266" y="1046.454" fill="#000" font-size="12" textLength="245.795" font-family="Verdana">dựa trên ngày giao và thời hạn hợp đồng</text><rect x="134.722" y="1079.284" width="250.883" height="33.969" fill="#FFF" style="stroke:#000;stroke-width:1;" rx="12.5" ry="12.5"/><text x="144.722" y="1100.422" fill="#000" font-size="12" textLength="230.883" font-family="Verdana">Đưa khoản nợ vào giai đoạn trong hạn</text><rect x="149.939" y="1133.252" width="220.449" height="47.938" fill="#FFF" style="stroke:#000;stroke-width:1;" rx="12.5" ry="12.5"/><text x="159.939" y="1154.391" fill="#000" font-size="12" textLength="174.246" font-family="Verdana">Gửi mail xác nhận giao hồ sơ</text><text x="159.939" y="1168.36" fill="#000" font-size="12" textLength="200.449" font-family="Verdana">cho khách nợ, Kế toán, Sale, HRA</text><rect x="140.772" y="1249.592" width="238.783" height="47.938" fill="#FFF" style="stroke:#000;stroke-width:1;" rx="12.5" ry="12.5"/><text x="150.772" y="1270.731" fill="#000" font-size="12" textLength="144.117" font-family="Verdana">Gửi mail nhắc trước hạn</text><text x="150.772" y="1284.7" fill="#000" font-size="12" textLength="218.783" font-family="Verdana">Số ngày còn lại, số tiền, phạt nếu có</text><polygon points="189.373,1201.19,330.955,1201.19,342.955,1213.19,330.955,1225.19,189.373,1225.19,177.373,1213.19,189.373,1201.19" fill="#FFF" style="stroke:#000;stroke-width:1;stroke-linejoin:miter;stroke-miterlimit:10;"/><text x="264.164" y="1235.4" fill="#000" font-size="11" textLength="14.411" font-family="Verdana">Có</text><text x="189.373" y="1216.998" fill="#000" font-size="11" textLength="141.582" font-family="Verdana">Đến mốc nhắc trước hạn?</text><text x="342.955" y="1210.596" fill="#000" font-size="11" textLength="72.95" font-family="Verdana">Chưa tới mốc</text><polygon points="260.164,1317.53,272.164,1329.53,260.164,1341.53,248.164,1329.53,260.164,1317.53" fill="#FFF" style="stroke:#000;stroke-width:1;stroke-linejoin:miter;stroke-miterlimit:10;"/><rect x="138.311" y="1409.932" width="243.705" height="33.969" fill="#FFF" style="stroke:#000;stroke-width:1;" rx="12.5" ry="12.5"/><text x="148.311" y="1431.071" fill="#000" font-size="12" textLength="223.705" font-family="Verdana">Gửi mail thông báo đến hạn hôm nay</text><polygon points="198.904,1361.53,321.424,1361.53,333.424,1373.53,321.424,1385.53,198.904,1385.53,186.904,1373.53,198.904,1361.53" fill="#FFF" style="stroke:#000;stroke-width:1;stroke-linejoin:miter;stroke-miterlimit:10;"/><text x="264.164" y="1395.74" fill="#000" font-size="11" textLength="14.411" font-family="Verdana">Có</text><text x="198.904" y="1377.338" fill="#000" font-size="11" textLength="122.52" font-family="Verdana">Đến ngày thanh toán?</text><text x="333.424" y="1370.936" fill="#000" font-size="11" textLength="45.96" font-family="Verdana">Chưa tới</text><polygon points="260.164,1463.901,272.164,1475.901,260.164,1487.901,248.164,1475.901,260.164,1463.901" fill="#FFF" style="stroke:#000;stroke-width:1;stroke-linejoin:miter;stroke-miterlimit:10;"/><rect x="21" y="1654.272" width="230.316" height="75.875" fill="#FFF" style="stroke:#000;stroke-width:1;" rx="12.5" ry="12.5"/><text x="31" y="1675.411" fill="#000" font-size="12" textLength="195.398" font-family="Verdana">Ghi nhận thanh toán thành công</text><text x="31" y="1689.379" fill="#000" font-size="12" textLength="210.316" font-family="Verdana">Khóa tiền phạt tại ngày thanh toán</text><text x="31" y="1703.348" fill="#000" font-size="12" textLength="108.615" font-family="Verdana">Gửi mail xác nhận</text><text x="31" y="1717.317" fill="#000" font-size="12" textLength="137.695" font-family="Verdana">Dừng các mail nhắc nợ</text><ellipse cx="136.158" cy="1761.147" rx="11" ry="11" fill="none" style="stroke:#000;stroke-width:1;"/><ellipse cx="136.158" cy="1761.147" rx="6" ry="6" fill="#FFF" style="stroke:#000;stroke-width:1;"/><path d="M404.788,1888.385 L404.788,1904.518 L384.788,1908.518 L404.788,1912.518 L404.788,1928.651 A0,0 0 0 0 404.788,1928.651 L633.984,1928.651 A0,0 0 0 0 633.984,1928.651 L633.984,1898.385 L623.984,1888.385 L404.788,1888.385 A0,0 0 0 0 404.788,1888.385" style="stroke:#000;stroke-width:1;" fill="#FFF"/><path d="M623.984,1888.385 L623.984,1898.385 L633.984,1898.385 L623.984,1888.385" style="stroke:#000;stroke-width:1;" fill="#FFF"/><text x="410.788" y="1905.452" fill="#000" font-size="13" textLength="100.007" font-family="Verdana">Tiếp tục xử lý ở</text><text x="410.788" y="1920.585" fill="#000" font-size="13" textLength="208.197" font-family="Verdana">Phần 2 — Quá hạn đến Kết thúc</text><rect x="135.54" y="1884.549" width="249.248" height="47.938" fill="#FFF" style="stroke:#000;stroke-width:1;" rx="12.5" ry="12.5"/><text x="145.54" y="1905.688" fill="#000" font-size="12" textLength="190.523" font-family="Verdana">Chuyển khoản nợ sang quá hạn</text><text x="145.54" y="1919.657" fill="#000" font-size="12" textLength="229.248" font-family="Verdana">Bắt đầu tính lãi phạt chậm thanh toán</text><ellipse cx="260.164" cy="1963.487" rx="11" ry="11" fill="none" style="stroke:#000;stroke-width:1;"/><ellipse cx="260.164" cy="1963.487" rx="6" ry="6" fill="#FFF" style="stroke:#000;stroke-width:1;"/><polygon points="197.966,1836.147,322.361,1836.147,334.361,1848.147,322.361,1860.147,197.966,1860.147,185.966,1848.147,197.966,1836.147" fill="#FFF" style="stroke:#000;stroke-width:1;stroke-linejoin:miter;stroke-miterlimit:10;"/><text x="264.164" y="1870.357" fill="#000" font-size="11" textLength="14.411" font-family="Verdana">Có</text><text x="197.966" y="1851.955" fill="#000" font-size="11" textLength="124.395" font-family="Verdana">Đã qua ngày đến hạn?</text><text x="334.361" y="1845.553" fill="#000" font-size="11" textLength="76.737" font-family="Verdana">Chưa quá hạn</text><ellipse cx="433.098" cy="1848.147" rx="11" ry="11" fill="none" style="stroke:#000;stroke-width:1;"/><ellipse cx="433.098" cy="1848.147" rx="6" ry="6" fill="#FFF" style="stroke:#000;stroke-width:1;"/><line x1="15" y1="59.354" x2="15" y2="1998.889" style="stroke:#000;stroke-width:1;"/><path d="M963.345,195.839 L963.345,227.104 L943.345,231.104 L963.345,235.104 L963.345,266.37 A0,0 0 0 0 963.345,266.37 L1230.799,266.37 A0,0 0 0 0 1230.799,266.37 L1230.799,205.839 L1220.799,195.839 L963.345,195.839 A0,0 0 0 0 963.345,195.839" style="stroke:#000;stroke-width:1;" fill="#FFF"/><path d="M1220.799,195.839 L1220.799,205.839 L1230.799,205.839 L1220.799,195.839" style="stroke:#000;stroke-width:1;" fill="#FFF"/><text x="969.345" y="212.906" fill="#000" font-size="13" textLength="246.454" font-family="Verdana">Kiểm tra: đúng khách hàng, hợp đồng</text><text x="969.345" y="228.039" fill="#000" font-size="13" textLength="201.443" font-family="Verdana">còn hiệu lực, số tiền chính xác,</text><text x="969.345" y="243.171" fill="#000" font-size="13" textLength="246.289" font-family="Verdana">kỳ thanh toán đúng, chứng từ đầy đủ,</text><text x="969.345" y="258.304" fill="#000" font-size="13" textLength="232.648" font-family="Verdana">không bị trùng, thuộc phạm vi xử lý</text><rect x="768.323" y="214.12" width="175.021" height="33.969" fill="#FFF" style="stroke:#000;stroke-width:1;" rx="12.5" ry="12.5"/><text x="778.323" y="235.259" fill="#000" font-size="12" textLength="155.021" font-family="Verdana">Kiểm tra dữ liệu khoản nợ</text><polygon points="808.251,286.37,903.417,286.37,915.417,298.37,903.417,310.37,808.251,310.37,796.251,298.37,808.251,286.37" fill="#FFF" style="stroke:#000;stroke-width:1;stroke-linejoin:miter;stroke-miterlimit:10;"/><text x="808.251" y="302.178" fill="#000" font-size="11" textLength="95.165" font-family="Verdana">Khoản nợ hợp lệ?</text><text x="761.382" y="295.776" fill="#000" font-size="11" textLength="34.869" font-family="Verdana">Không</text><text x="915.417" y="295.776" fill="#000" font-size="11" textLength="14.411" font-family="Verdana">Có</text><rect x="682.137" y="330.37" width="130.813" height="33.969" fill="#FFF" style="stroke:#000;stroke-width:1;" rx="12.5" ry="12.5"/><text x="692.137" y="351.509" fill="#000" font-size="12" textLength="110.813" font-family="Verdana">Nhập lý do loại trừ</text><rect x="862.885" y="330.37" width="202.479" height="33.969" fill="#FFF" style="stroke:#000;stroke-width:1;" rx="12.5" ry="12.5"/><text x="872.885" y="351.509" fill="#000" font-size="12" textLength="182.479" font-family="Verdana">Xác nhận khoản nợ chính thức</text><rect x="700.715" y="1556.303" width="310.238" height="33.969" fill="#FFF" style="stroke:#000;stroke-width:1;" rx="12.5" ry="12.5"/><text x="710.715" y="1577.442" fill="#000" font-size="12" textLength="290.238" font-family="Verdana">Kiểm tra số tiền, chứng từ, đối tượng thanh toán</text><polygon points="794.641,1610.272,917.027,1610.272,929.027,1622.272,917.027,1634.272,794.641,1634.272,782.641,1622.272,794.641,1610.272" fill="#FFF" style="stroke:#000;stroke-width:1;stroke-linejoin:miter;stroke-miterlimit:10;"/><text x="794.641" y="1626.08" fill="#000" font-size="11" textLength="122.386" font-family="Verdana">Đủ điều kiện tất toán?</text><text x="768.23" y="1619.678" fill="#000" font-size="11" textLength="14.411" font-family="Verdana">Có</text><text x="929.027" y="1619.678" fill="#000" font-size="11" textLength="45.815" font-family="Verdana">Chưa đủ</text><rect x="866.987" y="1654.272" width="225.705" height="33.969" fill="#FFF" style="stroke:#000;stroke-width:1;" rx="12.5" ry="12.5"/><text x="876.987" y="1675.411" fill="#000" font-size="12" textLength="205.705" font-family="Verdana">Yêu cầu bổ sung, tiếp tục theo dõi</text><line x1="676.137" y1="59.354" x2="676.137" y2="1998.889" style="stroke:#000;stroke-width:1;"/><rect x="1241.799" y="555.706" width="245.539" height="33.969" fill="#FFF" style="stroke:#000;stroke-width:1;" rx="12.5" ry="12.5"/><text x="1251.799" y="576.845" fill="#000" font-size="12" textLength="225.539" font-family="Verdana">Kiểm tra và đóng dấu hồ sơ bản cứng</text><rect x="1256.061" y="707.644" width="217.016" height="33.969" fill="#FFF" style="stroke:#000;stroke-width:1;" rx="12.5" ry="12.5"/><text x="1266.061" y="728.782" fill="#000" font-size="12" textLength="197.016" font-family="Verdana">Gửi hồ sơ qua đơn vị vận chuyển</text><polygon points="1364.568,663.644,1376.568,675.644,1364.568,687.644,1352.568,675.644,1364.568,663.644" fill="#FFF" style="stroke:#000;stroke-width:1;stroke-linejoin:miter;stroke-miterlimit:10;"/><polygon points="1272.983,844.55,1456.154,844.55,1468.154,856.55,1456.154,868.55,1272.983,868.55,1260.983,856.55,1272.983,844.55" fill="#FFF" style="stroke:#000;stroke-width:1;stroke-linejoin:miter;stroke-miterlimit:10;"/><text x="1368.568" y="878.76" fill="#000" font-size="11" textLength="14.411" font-family="Verdana">Có</text><text x="1272.983" y="860.358" fill="#000" font-size="11" textLength="183.17" font-family="Verdana">Xác nhận giao hồ sơ thành công?</text><text x="1468.154" y="853.956" fill="#000" font-size="11" textLength="34.869" font-family="Verdana">Không</text><rect x="1535.927" y="749.112" width="177.822" height="33.969" fill="#FFF" style="stroke:#000;stroke-width:1;" rx="12.5" ry="12.5"/><text x="1545.927" y="770.251" fill="#000" font-size="12" textLength="157.822" font-family="Verdana">Giao thất bại, gửi lại hồ sơ</text><path d="M1483.675,897.112 L1483.675,913.245 L1463.675,917.245 L1483.675,921.245 L1483.675,937.377 A0,0 0 0 0 1483.675,937.377 L1721.504,937.377 A0,0 0 0 0 1721.504,937.377 L1721.504,907.112 L1711.504,897.112 L1483.675,897.112 A0,0 0 0 0 1483.675,897.112" style="stroke:#000;stroke-width:1;" fill="#FFF"/><path d="M1711.504,897.112 L1711.504,907.112 L1721.504,907.112 L1711.504,897.112" style="stroke:#000;stroke-width:1;" fill="#FFF"/><text x="1489.675" y="914.179" fill="#000" font-size="13" textLength="216.83" font-family="Verdana">Ghi nhận: ngày giao, người nhận,</text><text x="1489.675" y="929.312" fill="#000" font-size="13" textLength="145.704" font-family="Verdana">bằng chứng giao hàng</text><rect x="1265.462" y="900.26" width="198.213" height="33.969" fill="#FFF" style="stroke:#000;stroke-width:1;" rx="12.5" ry="12.5"/><text x="1275.462" y="921.399" fill="#000" font-size="12" textLength="178.213" font-family="Verdana">Cập nhật thông tin giao hồ sơ</text><line x1="1235.799" y1="59.354" x2="1235.799" y2="1998.889" style="stroke:#000;stroke-width:1;"/><polygon points="1753.504,1507.901,1939.624,1507.901,1951.624,1519.901,1939.624,1531.901,1753.504,1531.901,1741.504,1519.901,1753.504,1507.901" fill="#FFF" style="stroke:#000;stroke-width:1;stroke-linejoin:miter;stroke-miterlimit:10;"/><text x="1850.564" y="1542.111" fill="#000" font-size="11" textLength="14.411" font-family="Verdana">Có</text><text x="1753.504" y="1523.709" fill="#000" font-size="11" textLength="186.119" font-family="Verdana">Thanh toán trước hoặc đúng hạn?</text><text x="1951.624" y="1517.307" fill="#000" font-size="11" textLength="98.586" font-family="Verdana">Không thanh toán</text><polygon points="1846.564,1792.147,1858.564,1804.147,1846.564,1816.147,1834.564,1804.147,1846.564,1792.147" fill="#FFF" style="stroke:#000;stroke-width:1;stroke-linejoin:miter;stroke-miterlimit:10;"/><line x1="1726.504" y1="59.354" x2="1726.504" y2="1998.889" style="stroke:#000;stroke-width:1;"/><line x1="2083.21" y1="59.354" x2="2083.21" y2="1998.889" style="stroke:#000;stroke-width:1;"/><line x1="260.164" y1="105.308" x2="260.164" y2="126.604" style="stroke:#000;stroke-width:1;"/><polygon points="256.164,116.604,260.164,126.604,264.164,116.604,260.164,120.604" fill="#000" style="stroke:#000;stroke-width:1;stroke-linejoin:miter;stroke-miterlimit:10;"/><line x1="151.873" y1="432.276" x2="151.873" y2="459.737" style="stroke:#000;stroke-width:1;"/><polygon points="147.873,449.737,151.873,459.737,155.873,449.737,151.873,453.737" fill="#000" style="stroke:#000;stroke-width:1;stroke-linejoin:miter;stroke-miterlimit:10;"/><line x1="151.873" y1="493.706" x2="151.873" y2="513.706" style="stroke:#000;stroke-width:1;"/><polygon points="147.873,503.706,151.873,513.706,155.873,503.706,151.873,507.706" fill="#000" style="stroke:#000;stroke-width:1;stroke-linejoin:miter;stroke-miterlimit:10;"/><line x1="260.164" y1="991.346" x2="260.164" y2="1011.346" style="stroke:#000;stroke-width:1;"/><polygon points="256.164,1001.346,260.164,1011.346,264.164,1001.346,260.164,1005.346" fill="#000" style="stroke:#000;stroke-width:1;stroke-linejoin:miter;stroke-miterlimit:10;"/><line x1="260.164" y1="1059.284" x2="260.164" y2="1079.284" style="stroke:#000;stroke-width:1;"/><polygon points="256.164,1069.284,260.164,1079.284,264.164,1069.284,260.164,1073.284" fill="#000" style="stroke:#000;stroke-width:1;stroke-linejoin:miter;stroke-miterlimit:10;"/><line x1="260.164" y1="1113.252" x2="260.164" y2="1133.252" style="stroke:#000;stroke-width:1;"/><polygon points="256.164,1123.252,260.164,1133.252,264.164,1123.252,260.164,1127.252" fill="#000" style="stroke:#000;stroke-width:1;stroke-linejoin:miter;stroke-miterlimit:10;"/><line x1="260.164" y1="1225.19" x2="260.164" y2="1249.592" style="stroke:#000;stroke-width:1;"/><polygon points="256.164,1239.592,260.164,1249.592,264.164,1239.592,260.164,1243.592" fill="#000" style="stroke:#000;stroke-width:1;stroke-linejoin:miter;stroke-miterlimit:10;"/><line x1="342.955" y1="1213.19" x2="389.555" y2="1213.19" style="stroke:#000;stroke-width:1;"/><polygon points="385.555,1263.561,389.555,1273.561,393.555,1263.561,389.555,1267.561" fill="#000" style="stroke:#000;stroke-width:1;stroke-linejoin:miter;stroke-miterlimit:10;"/><line x1="389.555" y1="1213.19" x2="389.555" y2="1329.53" style="stroke:#000;stroke-width:1;"/><line x1="389.555" y1="1329.53" x2="272.164" y2="1329.53" style="stroke:#000;stroke-width:1;"/><polygon points="282.164,1325.53,272.164,1329.53,282.164,1333.53,278.164,1329.53" fill="#000" style="stroke:#000;stroke-width:1;stroke-linejoin:miter;stroke-miterlimit:10;"/><line x1="260.164" y1="1297.53" x2="260.164" y2="1317.53" style="stroke:#000;stroke-width:1;"/><polygon points="256.164,1307.53,260.164,1317.53,264.164,1307.53,260.164,1311.53" fill="#000" style="stroke:#000;stroke-width:1;stroke-linejoin:miter;stroke-miterlimit:10;"/><line x1="260.164" y1="1181.19" x2="260.164" y2="1201.19" style="stroke:#000;stroke-width:1;"/><polygon points="256.164,1191.19,260.164,1201.19,264.164,1191.19,260.164,1195.19" fill="#000" style="stroke:#000;stroke-width:1;stroke-linejoin:miter;stroke-miterlimit:10;"/><line x1="260.164" y1="1385.53" x2="260.164" y2="1409.932" style="stroke:#000;stroke-width:1;"/><polygon points="256.164,1399.932,260.164,1409.932,264.164,1399.932,260.164,1403.932" fill="#000" style="stroke:#000;stroke-width:1;stroke-linejoin:miter;stroke-miterlimit:10;"/><line x1="333.424" y1="1373.53" x2="392.016" y2="1373.53" style="stroke:#000;stroke-width:1;"/><polygon points="388.016,1416.917,392.016,1426.917,396.016,1416.917,392.016,1420.917" fill="#000" style="stroke:#000;stroke-width:1;stroke-linejoin:miter;stroke-miterlimit:10;"/><line x1="392.016" y1="1373.53" x2="392.016" y2="1475.901" style="stroke:#000;stroke-width:1;"/><line x1="392.016" y1="1475.901" x2="272.164" y2="1475.901" style="stroke:#000;stroke-width:1;"/><polygon points="282.164,1471.901,272.164,1475.901,282.164,1479.901,278.164,1475.901" fill="#000" style="stroke:#000;stroke-width:1;stroke-linejoin:miter;stroke-miterlimit:10;"/><line x1="260.164" y1="1443.901" x2="260.164" y2="1463.901" style="stroke:#000;stroke-width:1;"/><polygon points="256.164,1453.901,260.164,1463.901,264.164,1453.901,260.164,1457.901" fill="#000" style="stroke:#000;stroke-width:1;stroke-linejoin:miter;stroke-miterlimit:10;"/><line x1="260.164" y1="1341.53" x2="260.164" y2="1361.53" style="stroke:#000;stroke-width:1;"/><polygon points="256.164,1351.53,260.164,1361.53,264.164,1351.53,260.164,1355.53" fill="#000" style="stroke:#000;stroke-width:1;stroke-linejoin:miter;stroke-miterlimit:10;"/><line x1="136.158" y1="1730.147" x2="136.158" y2="1750.147" style="stroke:#000;stroke-width:1;"/><polygon points="132.158,1740.147,136.158,1750.147,140.158,1740.147,136.158,1744.147" fill="#000" style="stroke:#000;stroke-width:1;stroke-linejoin:miter;stroke-miterlimit:10;"/><line x1="260.164" y1="1932.487" x2="260.164" y2="1952.487" style="stroke:#000;stroke-width:1;"/><polygon points="256.164,1942.487,260.164,1952.487,264.164,1942.487,260.164,1946.487" fill="#000" style="stroke:#000;stroke-width:1;stroke-linejoin:miter;stroke-miterlimit:10;"/><line x1="260.164" y1="1860.147" x2="260.164" y2="1884.549" style="stroke:#000;stroke-width:1;"/><polygon points="256.164,1874.549,260.164,1884.549,264.164,1874.549,260.164,1878.549" fill="#000" style="stroke:#000;stroke-width:1;stroke-linejoin:miter;stroke-miterlimit:10;"/><line x1="334.361" y1="1848.147" x2="422.098" y2="1848.147" style="stroke:#000;stroke-width:1;"/><polygon points="412.098,1844.147,422.098,1848.147,412.098,1852.147,416.098,1848.147" fill="#000" style="stroke:#000;stroke-width:1;stroke-linejoin:miter;stroke-miterlimit:10;"/><line x1="796.251" y1="298.37" x2="747.543" y2="298.37" style="stroke:#000;stroke-width:1;"/><line x1="747.543" y1="298.37" x2="747.543" y2="330.37" style="stroke:#000;stroke-width:1;"/><polygon points="743.543,320.37,747.543,330.37,751.543,320.37,747.543,324.37" fill="#000" style="stroke:#000;stroke-width:1;stroke-linejoin:miter;stroke-miterlimit:10;"/><line x1="915.417" y1="298.37" x2="964.125" y2="298.37" style="stroke:#000;stroke-width:1;"/><line x1="964.125" y1="298.37" x2="964.125" y2="330.37" style="stroke:#000;stroke-width:1;"/><polygon points="960.125,320.37,964.125,330.37,968.125,320.37,964.125,324.37" fill="#000" style="stroke:#000;stroke-width:1;stroke-linejoin:miter;stroke-miterlimit:10;"/><line x1="855.834" y1="248.089" x2="855.834" y2="286.37" style="stroke:#000;stroke-width:1;"/><polygon points="851.834,276.37,855.834,286.37,859.834,276.37,855.834,280.37" fill="#000" style="stroke:#000;stroke-width:1;stroke-linejoin:miter;stroke-miterlimit:10;"/><line x1="929.027" y1="1622.272" x2="979.839" y2="1622.272" style="stroke:#000;stroke-width:1;"/><line x1="979.839" y1="1622.272" x2="979.839" y2="1654.272" style="stroke:#000;stroke-width:1;"/><polygon points="975.839,1644.272,979.839,1654.272,983.839,1644.272,979.839,1648.272" fill="#000" style="stroke:#000;stroke-width:1;stroke-linejoin:miter;stroke-miterlimit:10;"/><line x1="979.839" y1="1688.241" x2="979.839" y2="1779.946" style="stroke:#000;stroke-width:1;"/><line x1="979.839" y1="1779.946" x2="1846.564" y2="1779.946" style="stroke:#000;stroke-width:1;"/><line x1="1846.564" y1="1779.946" x2="1846.564" y2="1792.147" style="stroke:#000;stroke-width:1;"/><polygon points="1842.564,1782.147,1846.564,1792.147,1850.564,1782.147,1846.564,1786.147" fill="#000" style="stroke:#000;stroke-width:1;stroke-linejoin:miter;stroke-miterlimit:10;"/><line x1="855.834" y1="1590.272" x2="855.834" y2="1610.272" style="stroke:#000;stroke-width:1;"/><polygon points="851.834,1600.272,855.834,1610.272,859.834,1600.272,855.834,1604.272" fill="#000" style="stroke:#000;stroke-width:1;stroke-linejoin:miter;stroke-miterlimit:10;"/><line x1="1364.568" y1="687.644" x2="1364.568" y2="707.644" style="stroke:#000;stroke-width:1;"/><polygon points="1360.568,697.644,1364.568,707.644,1368.568,697.644,1364.568,701.644" fill="#000" style="stroke:#000;stroke-width:1;stroke-linejoin:miter;stroke-miterlimit:10;"/><line x1="1468.154" y1="856.55" x2="1624.838" y2="856.55" style="stroke:#000;stroke-width:1;"/><line x1="1624.838" y1="783.081" x2="1624.838" y2="856.55" style="stroke:#000;stroke-width:1;"/><polygon points="1620.838,793.081,1624.838,783.081,1628.838,793.081,1624.838,789.081" fill="#000" style="stroke:#000;stroke-width:1;stroke-linejoin:miter;stroke-miterlimit:10;"/><line x1="1624.838" y1="675.644" x2="1624.838" y2="749.112" style="stroke:#000;stroke-width:1;"/><line x1="1624.838" y1="675.644" x2="1376.568" y2="675.644" style="stroke:#000;stroke-width:1;"/><polygon points="1386.568,671.644,1376.568,675.644,1386.568,679.644,1382.568,675.644" fill="#000" style="stroke:#000;stroke-width:1;stroke-linejoin:miter;stroke-miterlimit:10;"/><line x1="1364.568" y1="868.55" x2="1364.568" y2="900.26" style="stroke:#000;stroke-width:1;"/><polygon points="1360.568,890.26,1364.568,900.26,1368.568,890.26,1364.568,894.26" fill="#000" style="stroke:#000;stroke-width:1;stroke-linejoin:miter;stroke-miterlimit:10;"/><line x1="1951.624" y1="1519.901" x2="2064.21" y2="1519.901" style="stroke:#000;stroke-width:1;"/><polygon points="2060.21,1662.225,2064.21,1672.225,2068.21,1662.225,2064.21,1666.225" fill="#000" style="stroke:#000;stroke-width:1;stroke-linejoin:miter;stroke-miterlimit:10;"/><line x1="2064.21" y1="1519.901" x2="2064.21" y2="1804.147" style="stroke:#000;stroke-width:1;"/><line x1="2064.21" y1="1804.147" x2="1858.564" y2="1804.147" style="stroke:#000;stroke-width:1;"/><polygon points="1868.564,1800.147,1858.564,1804.147,1868.564,1808.147,1864.564,1804.147" fill="#000" style="stroke:#000;stroke-width:1;stroke-linejoin:miter;stroke-miterlimit:10;"/><line x1="260.164" y1="174.542" x2="260.164" y2="190.839" style="stroke:#000;stroke-width:1;"/><line x1="260.164" y1="190.839" x2="855.834" y2="190.839" style="stroke:#000;stroke-width:1;"/><line x1="855.834" y1="190.839" x2="855.834" y2="214.12" style="stroke:#000;stroke-width:1;"/><polygon points="851.834,204.12,855.834,214.12,859.834,204.12,855.834,208.12" fill="#000" style="stroke:#000;stroke-width:1;stroke-linejoin:miter;stroke-miterlimit:10;"/><line x1="747.543" y1="364.339" x2="747.543" y2="369.339" style="stroke:#000;stroke-width:1;"/><line x1="747.543" y1="369.339" x2="151.873" y2="369.339" style="stroke:#000;stroke-width:1;"/><line x1="151.873" y1="369.339" x2="151.873" y2="384.339" style="stroke:#000;stroke-width:1;"/><polygon points="147.873,374.339,151.873,384.339,155.873,374.339,151.873,378.339" fill="#000" style="stroke:#000;stroke-width:1;stroke-linejoin:miter;stroke-miterlimit:10;"/><line x1="964.125" y1="364.339" x2="964.125" y2="372.196" style="stroke:#000;stroke-width:1;"/><line x1="964.125" y1="372.196" x2="368.454" y2="372.196" style="stroke:#000;stroke-width:1;"/><line x1="368.454" y1="372.196" x2="368.454" y2="395.054" style="stroke:#000;stroke-width:1;"/><polygon points="364.454,385.054,368.454,395.054,372.454,385.054,368.454,389.054" fill="#000" style="stroke:#000;stroke-width:1;stroke-linejoin:miter;stroke-miterlimit:10;"/><line x1="368.454" y1="429.022" x2="368.454" y2="540.706" style="stroke:#000;stroke-width:1;"/><line x1="368.454" y1="540.706" x2="1364.568" y2="540.706" style="stroke:#000;stroke-width:1;"/><line x1="1364.568" y1="540.706" x2="1364.568" y2="555.706" style="stroke:#000;stroke-width:1;"/><polygon points="1360.568,545.706,1364.568,555.706,1368.568,545.706,1364.568,549.706" fill="#000" style="stroke:#000;stroke-width:1;stroke-linejoin:miter;stroke-miterlimit:10;"/><line x1="1364.568" y1="589.675" x2="1364.568" y2="594.675" style="stroke:#000;stroke-width:1;"/><line x1="1364.568" y1="594.675" x2="260.164" y2="594.675" style="stroke:#000;stroke-width:1;"/><line x1="260.164" y1="594.675" x2="260.164" y2="609.675" style="stroke:#000;stroke-width:1;"/><polygon points="256.164,599.675,260.164,609.675,264.164,599.675,260.164,603.675" fill="#000" style="stroke:#000;stroke-width:1;stroke-linejoin:miter;stroke-miterlimit:10;"/><line x1="1364.568" y1="741.612" x2="1364.568" y2="759.112" style="stroke:#000;stroke-width:1;"/><line x1="1364.568" y1="759.112" x2="260.164" y2="759.112" style="stroke:#000;stroke-width:1;"/><line x1="260.164" y1="759.112" x2="260.164" y2="776.612" style="stroke:#000;stroke-width:1;"/><polygon points="256.164,766.612,260.164,776.612,264.164,766.612,260.164,770.612" fill="#000" style="stroke:#000;stroke-width:1;stroke-linejoin:miter;stroke-miterlimit:10;"/><line x1="260.164" y1="824.55" x2="260.164" y2="829.55" style="stroke:#000;stroke-width:1;"/><line x1="260.164" y1="829.55" x2="1364.568" y2="829.55" style="stroke:#000;stroke-width:1;"/><line x1="1364.568" y1="829.55" x2="1364.568" y2="844.55" style="stroke:#000;stroke-width:1;"/><polygon points="1360.568,834.55,1364.568,844.55,1368.568,834.55,1364.568,838.55" fill="#000" style="stroke:#000;stroke-width:1;stroke-linejoin:miter;stroke-miterlimit:10;"/><line x1="260.164" y1="643.644" x2="260.164" y2="648.644" style="stroke:#000;stroke-width:1;"/><line x1="260.164" y1="648.644" x2="1364.568" y2="648.644" style="stroke:#000;stroke-width:1;"/><line x1="1364.568" y1="648.644" x2="1364.568" y2="663.644" style="stroke:#000;stroke-width:1;"/><polygon points="1360.568,653.644,1364.568,663.644,1368.568,653.644,1364.568,657.644" fill="#000" style="stroke:#000;stroke-width:1;stroke-linejoin:miter;stroke-miterlimit:10;"/><line x1="1364.568" y1="934.229" x2="1364.568" y2="942.377" style="stroke:#000;stroke-width:1;"/><line x1="1364.568" y1="942.377" x2="260.164" y2="942.377" style="stroke:#000;stroke-width:1;"/><line x1="260.164" y1="942.377" x2="260.164" y2="957.377" style="stroke:#000;stroke-width:1;"/><polygon points="256.164,947.377,260.164,957.377,264.164,947.377,260.164,951.377" fill="#000" style="stroke:#000;stroke-width:1;stroke-linejoin:miter;stroke-miterlimit:10;"/><line x1="782.641" y1="1622.272" x2="136.158" y2="1622.272" style="stroke:#000;stroke-width:1;"/><line x1="136.158" y1="1622.272" x2="136.158" y2="1654.272" style="stroke:#000;stroke-width:1;"/><polygon points="132.158,1644.272,136.158,1654.272,140.158,1644.272,136.158,1648.272" fill="#000" style="stroke:#000;stroke-width:1;stroke-linejoin:miter;stroke-miterlimit:10;"/><line x1="1846.564" y1="1531.901" x2="1846.564" y2="1544.102" style="stroke:#000;stroke-width:1;"/><line x1="1846.564" y1="1544.102" x2="855.834" y2="1544.102" style="stroke:#000;stroke-width:1;"/><line x1="855.834" y1="1544.102" x2="855.834" y2="1556.303" style="stroke:#000;stroke-width:1;"/><polygon points="851.834,1546.303,855.834,1556.303,859.834,1546.303,855.834,1550.303" fill="#000" style="stroke:#000;stroke-width:1;stroke-linejoin:miter;stroke-miterlimit:10;"/><line x1="260.164" y1="1487.901" x2="260.164" y2="1492.901" style="stroke:#000;stroke-width:1;"/><line x1="260.164" y1="1492.901" x2="1846.564" y2="1492.901" style="stroke:#000;stroke-width:1;"/><line x1="1846.564" y1="1492.901" x2="1846.564" y2="1507.901" style="stroke:#000;stroke-width:1;"/><polygon points="1842.564,1497.901,1846.564,1507.901,1850.564,1497.901,1846.564,1501.901" fill="#000" style="stroke:#000;stroke-width:1;stroke-linejoin:miter;stroke-miterlimit:10;"/><line x1="1846.564" y1="1816.147" x2="1846.564" y2="1821.147" style="stroke:#000;stroke-width:1;"/><line x1="1846.564" y1="1821.147" x2="260.164" y2="1821.147" style="stroke:#000;stroke-width:1;"/><line x1="260.164" y1="1821.147" x2="260.164" y2="1836.147" style="stroke:#000;stroke-width:1;"/><polygon points="256.164,1826.147,260.164,1836.147,264.164,1826.147,260.164,1830.147" fill="#000" style="stroke:#000;stroke-width:1;stroke-linejoin:miter;stroke-miterlimit:10;"/><text x="304.247" y="76.063" fill="#000" font-size="18" textLength="82.644" font-family="Verdana">Hệ thống</text><text x="921.414" y="76.063" fill="#000" font-size="18" textLength="69.108" font-family="Verdana">Kế toán</text><text x="1461.974" y="76.063" fill="#000" font-size="18" textLength="38.355" font-family="Verdana">HRA</text><text x="1863.012" y="76.063" fill="#000" font-size="18" textLength="83.689" font-family="Verdana">Khách nợ</text><?plantuml-src ZLPDQnjN5DthLzpkR1WewL9QbDQ551HAsvZIWZRZaQ9vUEQDh7cZsE15InTUPD6O98iIIYs4C4vhRDSjeHf25cFyFwQ_fEU-zqOpJrQJxcpD_JZtt7lFVH-eS10FQ1JvGhQKKD60lYd-a4EwEIxpNmJjXacvc4cIPJwZVxv_Jb-6vU9KqhqsRPVvRpGAYwcYLCYGFHPl9QdGnpygAQRuUvmW53ocijKw_BpCZ_2vp8_byB2LAd-iMkrj0QyHIHYTIpTTNEOlHKygpiDmdY7MJfd_J6pqEZ0-8ue4ucQTbapKWCPY6AeMqNPO_0bp9IGDuHct4RgO1g6Ex05IFXjLGJtOxvRvTHEwHwa6CaAEi_Z3Vfa_WVEapETidQ86n2xp7tJuuy2ZXpweWtK-HzMSYUrKZI8InIl9UOyypG6urRnu5E2_CxP2dQs1x1CN0hgw8CQ0EMorkqZsOupGFW7BXItQuMk5WTgZZKAB1J9O2iBY14Mx7C0XGDyfD76ZChyAFAVE82pEmSu-GgmZpEPmoz4pSNgWavngBqC8klY4QVgR7LIOeQc1fdeQqqJGVfcVKrIygTaGZsYZsvmD0numZpxUH8I1vEySUnDPsb_OoIZUK3-X27vJWNn0rC7dbK64_GDZuKpVBhx_97J7AjkUl1yAJigpa398462gUo4uSlipfE3Q4r1iPdKlE-1AVvSX6wGg6RK6KJgWZQtYch4wRKQ4Ry7lscsm_3EKis1z6OpEkkxNOTZMcGoYhJ3XpJqRjU7F2wXG5JE6fhtMh9fkA4-RxvIB2sLwcIsRmymye_HsQcnkZcylVPeK9mdrUIXIiss8SX7e0c2rR2V-48zO4Rx-n9rj-FCWNOF3VhcOPyiaZ05C17gsEgjQqgnywO4uCoTOfyeu7em6ljACeHXHk-nbFXU2QPxmX4vqm23C3W1GlfTpdN3eHEp91xUN6SNuCB4sjxppSbYS71XRxtqP6J5wu0UxZ_rn7nc5dp24nLmnArD4C4aZFSHLweujanw70jAqqHoi8OTOLgrO44BiFzO7soJIvIvnj-oaLitQqdEYuwYclZaXLwIevgXTLGvhPk7sKYkX-SY3X8Ak4B4I4HELzQgfZF-t-KF3L5rT1_T6Rv51OI-Mrk6cblKaDFRAvxs5PjU8zNWsnTlLK4I_USfRuEojNWbu2vWb9bDz5U5YHZ3sHTHSMfVFdWomiSu5gsN3t1wFq9_E7N9OE6-UwZ9ZFbJLHgenK_yoC32M6cf5gGbghKDFFkJJOAZHXoCoazYu69xL401UlCrWTTsff2zabXIVTuDgirQ4_q9lKZMQz2xCTYvtYcdYDXc_noJzWpL8QWpTccS3OTjvqbGyc4U8FQrhQLpLzeRGEJmrJwQdf-aOvuhppFZNEZiBWkKaFuKX--CHm3SRoBGYhELcZN2vqkKysXeBqvCWuzgltW2seKeBpPsEu3okdUMUj6SnuD-QGsMUBGn67qPSY4PNzAF1edU91FRlYbSOANsGS6PVK9hffuHvJ8B7US0Cu1OLV-dBR7fhmdUjQjN8tpr_K18-37Sruyu8RbdXTXKWzP5jBokcrUvyshodIWjILCn4HM_0hCMhVLyvuTlDKfStkSn_rL_jA_qZ_MJ_QfcwGj_L9n-DNWJDi-o-JtGJQjYRoyzCrRy0?></g></svg>