<svg xmlns="http://www.w3.org/2000/svg" xmlns:xlink="http://www.w3.org/1999/xlink" version="1.1" data-diagram-type="ACTIVITY" style="width:1797px;height:988px;background:#FFFFFF;" width="1797px" height="988px" viewBox="0 0 1797 988" zoomAndPan="magnify" preserveAspectRatio="none" contentStyleType="text/css"><?plantuml 1.2026.7beta11?><defs/><g font-family="sans-serif" lengthAdjust="spacing"><g class="title" data-source-line="2"><text x="524.782" y="35.421" fill="#000" font-size="22" textLength="746.346" font-weight="700" font-family="Verdana">Phân luồng 1: Tính cước và Đối soát (Billing &amp; Dispute Flow)</text></g><rect x="15" y="59.354" width="1760.911" height="20.953" fill="#FFF" style="stroke:#FFF;stroke-width:1;"/><rect x="21" y="223.276" width="231.389" height="33.969" fill="#FFF" style="stroke:#000;stroke-width:1;" rx="12.5" ry="12.5"/><text x="31" y="244.415" fill="#000" font-size="12" textLength="211.389" font-family="Verdana">Cung cấp dữ liệu tiêu dùng qua API</text><line x1="15" y1="59.354" x2="15" y2="972.643" style="stroke:#000;stroke-width:1;"/><ellipse cx="519.47" cy="95.308" rx="10" ry="10" fill="#FFF" style="stroke:#000;stroke-width:1;"/><rect x="410.107" y="169.308" width="218.727" height="33.969" fill="#FFF" style="stroke:#000;stroke-width:1;" rx="12.5" ry="12.5"/><text x="420.107" y="190.446" fill="#000" font-size="12" textLength="198.727" font-family="Verdana">Gửi yêu cầu lấy dữ liệu tiêu dùng</text><rect x="407.807" y="277.245" width="223.326" height="33.969" fill="#FFF" style="stroke:#000;stroke-width:1;" rx="12.5" ry="12.5"/><text x="417.807" y="298.384" fill="#000" font-size="12" textLength="203.326" font-family="Verdana">Tính cước chi tiết cho Khách hàng</text><rect x="379.319" y="331.214" width="280.303" height="33.969" fill="#FFF" style="stroke:#000;stroke-width:1;" rx="12.5" ry="12.5"/><text x="389.319" y="352.353" fill="#000" font-size="12" textLength="260.303" font-family="Verdana">Gửi email bảng tính cước yêu cầu xác nhận</text><rect x="262.389" y="699.026" width="237.67" height="33.969" fill="#FFF" style="stroke:#000;stroke-width:1;" rx="12.5" ry="12.5"/><text x="272.389" y="720.165" fill="#000" font-size="12" textLength="217.67" font-family="Verdana">Ghi nhận trạng thái: Cần đối soát lại</text><rect x="565.103" y="483.151" width="185.229" height="33.969" fill="#FFF" style="stroke:#000;stroke-width:1;" rx="12.5" ry="12.5"/><text x="575.103" y="504.29" fill="#000" font-size="12" textLength="165.229" font-family="Verdana">Bấm Xác nhận đúng chi phí</text><rect x="547.504" y="537.12" width="220.426" height="33.969" fill="#FFF" style="stroke:#000;stroke-width:1;" rx="12.5" ry="12.5"/><text x="557.504" y="558.259" fill="#000" font-size="12" textLength="200.426" font-family="Verdana">Ghi nhận trạng thái: Đã xác nhận</text><polygon points="519.47,125.308,531.47,137.308,519.47,149.308,507.47,137.308,519.47,125.308" fill="#FFF" style="stroke:#000;stroke-width:1;stroke-linejoin:miter;stroke-miterlimit:10;"/><polygon points="451.214,786.995,587.726,786.995,599.726,798.995,587.726,810.995,451.214,810.995,439.214,798.995,451.214,786.995" fill="#FFF" style="stroke:#000;stroke-width:1;stroke-linejoin:miter;stroke-miterlimit:10;"/><text x="523.47" y="821.206" fill="#000" font-size="11" textLength="69.212" font-family="Verdana">Đã xác nhận</text><text x="451.214" y="802.803" fill="#000" font-size="11" textLength="136.512" font-family="Verdana">Trạng thái xác nhận Bill?</text><text x="599.726" y="796.401" fill="#000" font-size="11" textLength="85.019" font-family="Verdana">Cần đối soát lại</text><rect x="411.2" y="842.706" width="216.541" height="33.969" fill="#FFF" style="stroke:#000;stroke-width:1;" rx="12.5" ry="12.5"/><text x="421.2" y="863.844" fill="#000" font-size="12" textLength="196.541" font-family="Verdana">Ghi nhận Bill đã duyệt (Chốt Bill)</text><rect x="408.437" y="896.674" width="222.066" height="33.969" fill="#FFF" style="stroke:#000;stroke-width:1;" rx="12.5" ry="12.5"/><text x="418.437" y="917.813" fill="#000" font-size="12" textLength="202.066" font-family="Verdana">Chuyển sang Luồng xuất hóa đơn</text><ellipse cx="519.47" cy="961.643" rx="11" ry="11" fill="none" style="stroke:#000;stroke-width:1;"/><ellipse cx="519.47" cy="961.643" rx="6" ry="6" fill="#FFF" style="stroke:#000;stroke-width:1;"/><line x1="256.389" y1="59.354" x2="256.389" y2="972.643" style="stroke:#000;stroke-width:1;"/><rect x="918.61" y="385.183" width="237.945" height="33.969" fill="#FFF" style="stroke:#000;stroke-width:1;" rx="12.5" ry="12.5"/><text x="928.61" y="406.321" fill="#000" font-size="12" textLength="217.945" font-family="Verdana">Nhận email và kiểm tra chi tiết cước</text><polygon points="973.183,439.151,1101.982,439.151,1113.982,451.151,1101.982,463.151,973.183,463.151,961.183,451.151,973.183,439.151" fill="#FFF" style="stroke:#000;stroke-width:1;stroke-linejoin:miter;stroke-miterlimit:10;"/><text x="973.183" y="454.959" fill="#000" font-size="11" textLength="128.799" font-family="Verdana">Xác nhận chi phí đúng?</text><text x="901.408" y="448.557" fill="#000" font-size="11" textLength="59.775" font-family="Verdana">Có sai lệch</text><text x="1113.982" y="448.557" fill="#000" font-size="11" textLength="54.447" font-family="Verdana">Chính xác</text><rect x="806.93" y="483.151" width="184.813" height="33.969" fill="#FFF" style="stroke:#000;stroke-width:1;" rx="12.5" ry="12.5"/><text x="816.93" y="504.29" fill="#000" font-size="12" textLength="164.813" font-family="Verdana">Bấm phản hồi sai lệch cước</text><polygon points="1037.583,742.995,1049.583,754.995,1037.583,766.995,1025.583,754.995,1037.583,742.995" fill="#FFF" style="stroke:#000;stroke-width:1;stroke-linejoin:miter;stroke-miterlimit:10;"/><line x1="800.93" y1="59.354" x2="800.93" y2="972.643" style="stroke:#000;stroke-width:1;"/><rect x="1234.935" y="537.12" width="177.049" height="33.969" fill="#FFF" style="stroke:#000;stroke-width:1;" rx="12.5" ry="12.5"/><text x="1244.935" y="558.259" fill="#000" font-size="12" textLength="157.049" font-family="Verdana">Nhận thông báo lệch cước</text><rect x="1179.429" y="591.089" width="288.061" height="33.969" fill="#FFF" style="stroke:#000;stroke-width:1;" rx="12.5" ry="12.5"/><text x="1189.429" y="612.228" fill="#000" font-size="12" textLength="268.061" font-family="Verdana">Phối hợp đối soát với Khách hàng và Kế toán</text><line x1="1173.429" y1="59.354" x2="1173.429" y2="972.643" style="stroke:#000;stroke-width:1;"/><rect x="1477.489" y="645.058" width="292.561" height="33.969" fill="#FFF" style="stroke:#000;stroke-width:1;" rx="12.5" ry="12.5"/><text x="1487.489" y="666.196" fill="#000" font-size="12" textLength="272.561" font-family="Verdana">Cập nhật lại chính sách/dữ liệu cước trên ERP</text><line x1="1471.489" y1="59.354" x2="1471.489" y2="972.643" style="stroke:#000;stroke-width:1;"/><line x1="1774.05" y1="59.354" x2="1774.05" y2="972.643" style="stroke:#000;stroke-width:1;"/><line x1="519.47" y1="311.214" x2="519.47" y2="331.214" style="stroke:#000;stroke-width:1;"/><polygon points="515.47,321.214,519.47,331.214,523.47,321.214,519.47,325.214" fill="#000" style="stroke:#000;stroke-width:1;stroke-linejoin:miter;stroke-miterlimit:10;"/><line x1="657.717" y1="517.12" x2="657.717" y2="537.12" style="stroke:#000;stroke-width:1;"/><polygon points="653.717,527.12,657.717,537.12,661.717,527.12,657.717,531.12" fill="#000" style="stroke:#000;stroke-width:1;stroke-linejoin:miter;stroke-miterlimit:10;"/><line x1="519.47" y1="149.308" x2="519.47" y2="169.308" style="stroke:#000;stroke-width:1;"/><polygon points="515.47,159.308,519.47,169.308,523.47,159.308,519.47,163.308" fill="#000" style="stroke:#000;stroke-width:1;stroke-linejoin:miter;stroke-miterlimit:10;"/><line x1="599.726" y1="798.995" x2="781.93" y2="798.995" style="stroke:#000;stroke-width:1;"/><polygon points="777.93,470.651,781.93,460.651,785.93,470.651,781.93,466.651" fill="#000" style="stroke:#000;stroke-width:1;stroke-linejoin:miter;stroke-miterlimit:10;"/><line x1="781.93" y1="137.308" x2="781.93" y2="798.995" style="stroke:#000;stroke-width:1;"/><line x1="781.93" y1="137.308" x2="531.47" y2="137.308" style="stroke:#000;stroke-width:1;"/><polygon points="541.47,133.308,531.47,137.308,541.47,141.308,537.47,137.308" fill="#000" style="stroke:#000;stroke-width:1;stroke-linejoin:miter;stroke-miterlimit:10;"/><line x1="519.47" y1="105.308" x2="519.47" y2="125.308" style="stroke:#000;stroke-width:1;"/><polygon points="515.47,115.308,519.47,125.308,523.47,115.308,519.47,119.308" fill="#000" style="stroke:#000;stroke-width:1;stroke-linejoin:miter;stroke-miterlimit:10;"/><line x1="519.47" y1="810.995" x2="519.47" y2="842.706" style="stroke:#000;stroke-width:1;"/><polygon points="515.47,832.706,519.47,842.706,523.47,832.706,519.47,836.706" fill="#000" style="stroke:#000;stroke-width:1;stroke-linejoin:miter;stroke-miterlimit:10;"/><line x1="519.47" y1="876.674" x2="519.47" y2="896.674" style="stroke:#000;stroke-width:1;"/><polygon points="515.47,886.674,519.47,896.674,523.47,886.674,519.47,890.674" fill="#000" style="stroke:#000;stroke-width:1;stroke-linejoin:miter;stroke-miterlimit:10;"/><line x1="519.47" y1="930.643" x2="519.47" y2="950.643" style="stroke:#000;stroke-width:1;"/><polygon points="515.47,940.643,519.47,950.643,523.47,940.643,519.47,944.643" fill="#000" style="stroke:#000;stroke-width:1;stroke-linejoin:miter;stroke-miterlimit:10;"/><line x1="961.183" y1="451.151" x2="899.336" y2="451.151" style="stroke:#000;stroke-width:1;"/><line x1="899.336" y1="451.151" x2="899.336" y2="483.151" style="stroke:#000;stroke-width:1;"/><polygon points="895.336,473.151,899.336,483.151,903.336,473.151,899.336,477.151" fill="#000" style="stroke:#000;stroke-width:1;stroke-linejoin:miter;stroke-miterlimit:10;"/><line x1="1037.583" y1="419.151" x2="1037.583" y2="439.151" style="stroke:#000;stroke-width:1;"/><polygon points="1033.583,429.151,1037.583,439.151,1041.583,429.151,1037.583,433.151" fill="#000" style="stroke:#000;stroke-width:1;stroke-linejoin:miter;stroke-miterlimit:10;"/><line x1="1323.459" y1="571.089" x2="1323.459" y2="591.089" style="stroke:#000;stroke-width:1;"/><polygon points="1319.459,581.089,1323.459,591.089,1327.459,581.089,1323.459,585.089" fill="#000" style="stroke:#000;stroke-width:1;stroke-linejoin:miter;stroke-miterlimit:10;"/><line x1="519.47" y1="203.276" x2="519.47" y2="208.276" style="stroke:#000;stroke-width:1;"/><line x1="519.47" y1="208.276" x2="136.694" y2="208.276" style="stroke:#000;stroke-width:1;"/><line x1="136.694" y1="208.276" x2="136.694" y2="223.276" style="stroke:#000;stroke-width:1;"/><polygon points="132.694,213.276,136.694,223.276,140.694,213.276,136.694,217.276" fill="#000" style="stroke:#000;stroke-width:1;stroke-linejoin:miter;stroke-miterlimit:10;"/><line x1="136.694" y1="257.245" x2="136.694" y2="262.245" style="stroke:#000;stroke-width:1;"/><line x1="136.694" y1="262.245" x2="519.47" y2="262.245" style="stroke:#000;stroke-width:1;"/><line x1="519.47" y1="262.245" x2="519.47" y2="277.245" style="stroke:#000;stroke-width:1;"/><polygon points="515.47,267.245,519.47,277.245,523.47,267.245,519.47,271.245" fill="#000" style="stroke:#000;stroke-width:1;stroke-linejoin:miter;stroke-miterlimit:10;"/><line x1="519.47" y1="365.183" x2="519.47" y2="370.183" style="stroke:#000;stroke-width:1;"/><line x1="519.47" y1="370.183" x2="1037.583" y2="370.183" style="stroke:#000;stroke-width:1;"/><line x1="1037.583" y1="370.183" x2="1037.583" y2="385.183" style="stroke:#000;stroke-width:1;"/><polygon points="1033.583,375.183,1037.583,385.183,1041.583,375.183,1037.583,379.183" fill="#000" style="stroke:#000;stroke-width:1;stroke-linejoin:miter;stroke-miterlimit:10;"/><line x1="899.336" y1="517.12" x2="899.336" y2="522.12" style="stroke:#000;stroke-width:1;"/><line x1="899.336" y1="522.12" x2="1323.459" y2="522.12" style="stroke:#000;stroke-width:1;"/><line x1="1323.459" y1="522.12" x2="1323.459" y2="537.12" style="stroke:#000;stroke-width:1;"/><polygon points="1319.459,527.12,1323.459,537.12,1327.459,527.12,1323.459,531.12" fill="#000" style="stroke:#000;stroke-width:1;stroke-linejoin:miter;stroke-miterlimit:10;"/><line x1="1323.459" y1="625.058" x2="1323.459" y2="630.058" style="stroke:#000;stroke-width:1;"/><line x1="1323.459" y1="630.058" x2="1623.77" y2="630.058" style="stroke:#000;stroke-width:1;"/><line x1="1623.77" y1="630.058" x2="1623.77" y2="645.058" style="stroke:#000;stroke-width:1;"/><polygon points="1619.77,635.058,1623.77,645.058,1627.77,635.058,1623.77,639.058" fill="#000" style="stroke:#000;stroke-width:1;stroke-linejoin:miter;stroke-miterlimit:10;"/><line x1="1623.77" y1="679.026" x2="1623.77" y2="684.026" style="stroke:#000;stroke-width:1;"/><line x1="1623.77" y1="684.026" x2="381.224" y2="684.026" style="stroke:#000;stroke-width:1;"/><line x1="381.224" y1="684.026" x2="381.224" y2="699.026" style="stroke:#000;stroke-width:1;"/><polygon points="377.224,689.026,381.224,699.026,385.224,689.026,381.224,693.026" fill="#000" style="stroke:#000;stroke-width:1;stroke-linejoin:miter;stroke-miterlimit:10;"/><line x1="1113.982" y1="451.151" x2="1125.982" y2="451.151" style="stroke:#000;stroke-width:1;"/><line x1="1125.982" y1="451.151" x2="1125.982" y2="469.151" style="stroke:#000;stroke-width:1;"/><line x1="1125.982" y1="469.151" x2="657.717" y2="469.151" style="stroke:#000;stroke-width:1;"/><line x1="657.717" y1="469.151" x2="657.717" y2="483.151" style="stroke:#000;stroke-width:1;"/><polygon points="653.717,473.151,657.717,483.151,661.717,473.151,657.717,477.151" fill="#000" style="stroke:#000;stroke-width:1;stroke-linejoin:miter;stroke-miterlimit:10;"/><line x1="381.224" y1="732.995" x2="381.224" y2="754.995" style="stroke:#000;stroke-width:1;"/><line x1="381.224" y1="754.995" x2="1025.583" y2="754.995" style="stroke:#000;stroke-width:1;"/><polygon points="1015.583,750.995,1025.583,754.995,1015.583,758.995,1019.583,754.995" fill="#000" style="stroke:#000;stroke-width:1;stroke-linejoin:miter;stroke-miterlimit:10;"/><line x1="657.717" y1="571.089" x2="657.717" y2="736.995" style="stroke:#000;stroke-width:1;"/><line x1="657.717" y1="736.995" x2="1067.583" y2="736.995" style="stroke:#000;stroke-width:1;"/><line x1="1067.583" y1="736.995" x2="1067.583" y2="754.995" style="stroke:#000;stroke-width:1;"/><line x1="1067.583" y1="754.995" x2="1049.583" y2="754.995" style="stroke:#000;stroke-width:1;"/><polygon points="1059.583,750.995,1049.583,754.995,1059.583,758.995,1055.583,754.995" fill="#000" style="stroke:#000;stroke-width:1;stroke-linejoin:miter;stroke-miterlimit:10;"/><line x1="1037.583" y1="766.995" x2="1037.583" y2="771.995" style="stroke:#000;stroke-width:1;"/><line x1="1037.583" y1="771.995" x2="519.47" y2="771.995" style="stroke:#000;stroke-width:1;"/><line x1="519.47" y1="771.995" x2="519.47" y2="786.995" style="stroke:#000;stroke-width:1;"/><polygon points="515.47,776.995,519.47,786.995,523.47,776.995,519.47,780.995" fill="#000" style="stroke:#000;stroke-width:1;stroke-linejoin:miter;stroke-miterlimit:10;"/><text x="73.406" y="76.063" fill="#000" font-size="18" textLength="124.576" font-family="Verdana">Console Hãng</text><text x="467.109" y="76.063" fill="#000" font-size="18" textLength="123.1" font-family="Verdana">Hệ thống ERP</text><text x="933.909" y="76.063" fill="#000" font-size="18" textLength="106.541" font-family="Verdana">Khách hàng</text><text x="1281.722" y="76.063" fill="#000" font-size="18" textLength="81.475" font-family="Verdana">Sales AM</text><text x="1588.215" y="76.063" fill="#000" font-size="18" textLength="69.108" font-family="Verdana">Kế toán</text><?plantuml-src dLIxRjim5Dtr5RTBOKr5Ltie4lUHeWyOROQkYioOH6LAjQWa1hnbo9eWOvUuHX0WWD42wL9fwC0W_y4_wI6jrfGXBrqCmRpttFEuv2F5sPXHbaH21ageXD60ws-Iai9Kbt94JxkqhvUIK_pmmrHVOphILtH_RgeBGNcgvuewko9914eVqtEHPuLYz399ZyCWcFLJcQU0tDCBEPe5iprJdP7YQ4RvYmy3_FM6wtdCYUihL_4nIbXEE-_iYIb_ay88EGlQMdCLJLGmOHcBL43KKa7KVMMgfQ2flYqeDkLDGOafhwSqDDLtIWGw2bB2dWxrBpdgMPmDqW3f5q14-tMshP6-517j35xtjX9fcXXpWNO8LFXCoJUXjwRDnf58wC2K84Ag0U0fEa4lIMxAfNJZcuu2xBqxgz5iV9_1_tHCQX8rYAoWBOOufCwdDQohohXUqls5BkNeMGXvJ5Adh-yeZmHChSvY7g8JutPXr1ZbbZR1XKlXrVXJm7KTjskjcIgkVqBnWPwdhMtT0NVxXzz51axUCXwXIZJyT8hNkrGFzfVBGVOnELlfLNP9vWAgdUMvnNhY1_yt13NHjz8cN8Es1M_3X7kraMe2P1ic28ekOUYDR0fmeoqUIt86XrSSRCODU_rqLg7y2-b_oToVwyNcCZ4v58VjExswU7JC1UvAPz_7yb78lWvO6953p1Qv8SaKxyWcWR3rsliABBQLlw1XCKMbieQXLhcJi1Tq-zmUd4gi803Ure_QIG4J5VRZBaBxWzsANANP7m00?></g></svg>