<svg xmlns="http://www.w3.org/2000/svg" xmlns:xlink="http://www.w3.org/1999/xlink" version="1.1" data-diagram-type="ACTIVITY" style="width:1626px;height:1652px;background:#FFFFFF;" width="1626px" height="1652px" viewBox="0 0 1626 1652" zoomAndPan="magnify" preserveAspectRatio="none" contentStyleType="text/css"><?plantuml 1.2026.7beta11?><defs/><g font-family="sans-serif" lengthAdjust="spacing"><g class="title" data-source-line="2"><text x="437.347" y="35.421" fill="#000" font-size="22" textLength="749.934" font-weight="700" font-family="Verdana">Tính cước GWS Flex — CSV Import + SKU Pricing + Proration</text></g><rect x="15" y="59.354" width="1589.627" height="20.953" fill="#FFF" style="stroke:#FFF;stroke-width:1;"/><ellipse cx="204.798" cy="95.308" rx="10" ry="10" fill="#FFF" style="stroke:#000;stroke-width:1;"/><path d="M401.043,115.308 L401.043,146.573 L381.043,150.573 L401.043,154.573 L401.043,185.839 A0,0 0 0 0 401.043,185.839 L688.962,185.839 A0,0 0 0 0 688.962,185.839 L688.962,125.308 L678.962,115.308 L401.043,115.308 A0,0 0 0 0 401.043,115.308" style="stroke:#000;stroke-width:1;" fill="#FFF"/><path d="M678.962,115.308 L678.962,125.308 L688.962,125.308 L678.962,115.308" style="stroke:#000;stroke-width:1;" fill="#FFF"/><text x="407.043" y="132.375" fill="#000" font-size="13" textLength="141.159" font-family="Verdana">File CSV gồm các cột:</text><text x="407.043" y="147.507" fill="#000" font-size="13" textLength="266.919" font-family="Verdana">Domain name, Subscription, Description,</text><text x="407.043" y="162.64" fill="#000" font-size="13" textLength="259.543" font-family="Verdana">Quantity, Start date, End date, Amount,</text><text x="407.043" y="177.773" fill="#000" font-size="13" textLength="133.656" font-family="Verdana">Customer ID, SKU ID</text><rect x="28.553" y="133.589" width="352.49" height="33.969" fill="#FFF" style="stroke:#000;stroke-width:1;" rx="12.5" ry="12.5"/><text x="38.553" y="154.728" fill="#000" font-size="12" textLength="332.49" font-family="Verdana">Tải CSV Monthly Detail Report từ Partner Sales Console</text><path d="M408.596,195.839 L408.596,219.538 L388.596,223.538 L408.596,227.538 L408.596,251.237 A0,0 0 0 0 408.596,251.237 L666.662,251.237 A0,0 0 0 0 666.662,251.237 L666.662,205.839 L656.662,195.839 L408.596,195.839 A0,0 0 0 0 408.596,195.839" style="stroke:#000;stroke-width:1;" fill="#FFF"/><path d="M656.662,195.839 L656.662,205.839 L666.662,205.839 L656.662,195.839" style="stroke:#000;stroke-width:1;" fill="#FFF"/><text x="414.596" y="212.906" fill="#000" font-size="13" textLength="233.181" font-family="Verdana">Cùng domain vừa Flex vừa Commit:</text><text x="414.596" y="228.039" fill="#000" font-size="13" textLength="215.89" font-family="Verdana">chỉ giữ Usage, New commitment,</text><text x="414.596" y="243.171" fill="#000" font-size="13" textLength="237.066" font-family="Verdana">Commitment increase (Amount > 0)</text><rect x="21" y="206.554" width="367.596" height="33.969" fill="#FFF" style="stroke:#000;stroke-width:1;" rx="12.5" ry="12.5"/><text x="31" y="227.692" fill="#000" font-size="12" textLength="347.596" font-family="Verdana">Lọc thủ công: xóa dòng Committed của khách Committed</text><rect x="100.444" y="271.237" width="208.707" height="33.969" fill="#FFF" style="stroke:#000;stroke-width:1;" rx="12.5" ry="12.5"/><text x="110.444" y="292.376" fill="#000" font-size="12" textLength="188.707" font-family="Verdana">Chuyển CSV → Excel (.xls/.xlsx)</text><rect x="122.915" y="325.206" width="163.766" height="33.969" fill="#FFF" style="stroke:#000;stroke-width:1;" rx="12.5" ry="12.5"/><text x="132.915" y="346.345" fill="#000" font-size="12" textLength="143.766" font-family="Verdana">Upload file lên hệ thống</text><rect x="47.168" y="1503.346" width="315.26" height="33.969" fill="#FFF" style="stroke:#000;stroke-width:1;" rx="12.5" ry="12.5"/><text x="57.168" y="1524.485" fill="#000" font-size="12" textLength="295.26" font-family="Verdana">Kiểm tra số (dùng trực giác nếu thấy bất thường)</text><path d="M338.805,1554.167 L338.805,1570.299 L318.805,1574.299 L338.805,1578.299 L338.805,1594.432 A0,0 0 0 0 338.805,1594.432 L582.912,1594.432 A0,0 0 0 0 582.912,1594.432 L582.912,1564.167 L572.912,1554.167 L338.805,1554.167 A0,0 0 0 0 338.805,1554.167" style="stroke:#000;stroke-width:1;" fill="#FFF"/><path d="M572.912,1554.167 L572.912,1564.167 L582.912,1564.167 L572.912,1554.167" style="stroke:#000;stroke-width:1;" fill="#FFF"/><text x="344.805" y="1571.233" fill="#000" font-size="13" textLength="223.107" font-family="Verdana">Kế toán tin tưởng số CM cho GWS,</text><text x="344.805" y="1586.366" fill="#000" font-size="13" textLength="197.564" font-family="Verdana">chỉ check khi thấy bất thường.</text><rect x="90.791" y="1557.315" width="228.014" height="33.969" fill="#FFF" style="stroke:#000;stroke-width:1;" rx="12.5" ry="12.5"/><text x="100.791" y="1578.454" fill="#000" font-size="12" textLength="208.014" font-family="Verdana">Gửi email bảng đối soát cho khách</text><ellipse cx="204.798" cy="1625.432" rx="11" ry="11" fill="none" style="stroke:#000;stroke-width:1;"/><ellipse cx="204.798" cy="1625.432" rx="6" ry="6" fill="#FFF" style="stroke:#000;stroke-width:1;"/><line x1="15" y1="59.354" x2="15" y2="1636.432" style="stroke:#000;stroke-width:1;"/><rect x="993.334" y="379.175" width="333.553" height="33.969" fill="#FFF" style="stroke:#000;stroke-width:1;" rx="12.5" ry="12.5"/><text x="1003.334" y="400.313" fill="#000" font-size="12" textLength="313.553" font-family="Verdana">Parse Excel từ dòng 10 (skip 9 dòng header invoice)</text><rect x="1063.122" y="433.144" width="193.977" height="33.969" fill="#FFF" style="stroke:#000;stroke-width:1;" rx="12.5" ry="12.5"/><text x="1073.122" y="454.282" fill="#000" font-size="12" textLength="173.977" font-family="Verdana">Pop dòng GST/VAT cuối cùng</text><rect x="993.094" y="487.112" width="334.033" height="33.969" fill="#FFF" style="stroke:#000;stroke-width:1;" rx="12.5" ry="12.5"/><text x="1003.094" y="508.251" fill="#000" font-size="12" textLength="314.033" font-family="Verdana">Validate: Domain name (string) + Amount (number)</text><rect x="1039.14" y="541.081" width="241.941" height="33.969" fill="#FFF" style="stroke:#000;stroke-width:1;" rx="12.5" ry="12.5"/><text x="1049.14" y="562.22" fill="#000" font-size="12" textLength="221.941" font-family="Verdana">Lấy contracts có plan = Flexible Plan</text><rect x="974.663" y="595.05" width="370.895" height="33.969" fill="#FFF" style="stroke:#000;stroke-width:1;" rx="12.5" ry="12.5"/><text x="984.663" y="616.188" fill="#000" font-size="12" textLength="350.895" font-family="Verdana">Với mỗi contract, lấy domain từ gcp_private[].gws_domain</text><rect x="1074.665" y="693.019" width="170.891" height="33.969" fill="#FFF" style="stroke:#000;stroke-width:1;" rx="12.5" ry="12.5"/><text x="1084.665" y="714.157" fill="#000" font-size="12" textLength="150.891" font-family="Verdana">Với mỗi dòng trong Excel</text><rect x="1035.891" y="746.987" width="248.439" height="33.969" fill="#FFF" style="stroke:#000;stroke-width:1;" rx="12.5" ry="12.5"/><text x="1045.891" y="768.126" fill="#000" font-size="12" textLength="228.439" font-family="Verdana">Tìm domain khớp với contract domain</text><polygon points="1110.584,800.956,1209.637,800.956,1221.637,812.956,1209.637,824.956,1110.584,824.956,1098.584,812.956,1110.584,800.956" fill="#FFF" style="stroke:#000;stroke-width:1;stroke-linejoin:miter;stroke-miterlimit:10;"/><text x="1110.584" y="816.764" fill="#000" font-size="11" textLength="99.054" font-family="Verdana">Tìm thấy domain?</text><text x="1084.173" y="810.362" fill="#000" font-size="11" textLength="14.411" font-family="Verdana">Có</text><text x="1221.637" y="810.362" fill="#000" font-size="11" textLength="34.869" font-family="Verdana">Không</text><path d="M1035.77,834.956 L1035.77,888.921 L1015.77,892.921 L1035.77,896.921 L1035.77,950.886 A0,0 0 0 0 1035.77,950.886 L1297.377,950.886 A0,0 0 0 0 1297.377,950.886 L1297.377,844.956 L1287.377,834.956 L1035.77,834.956 A0,0 0 0 0 1035.77,834.956" style="stroke:#000;stroke-width:1;" fill="#FFF"/><path d="M1287.377,834.956 L1287.377,844.956 L1297.377,844.956 L1287.377,834.956" style="stroke:#000;stroke-width:1;" fill="#FFF"/><text x="1041.77" y="852.023" fill="#000" font-size="13" textLength="127.004" font-family="Verdana">Bảng giá hardcode:</text><text x="1041.77" y="867.156" fill="#000" font-size="13" textLength="144.016" font-family="Verdana">Business Starter: $8.4</text><text x="1041.77" y="882.289" fill="#000" font-size="13" textLength="166.556" font-family="Verdana">Business Standard: $16.8</text><text x="1041.77" y="897.421" fill="#000" font-size="13" textLength="133.65" font-family="Verdana">Business Plus: $26.4</text><text x="1041.77" y="912.554" fill="#000" font-size="13" textLength="176.103" font-family="Verdana">Enterprise Standard: $32.4</text><text x="1041.77" y="927.687" fill="#000" font-size="13" textLength="130.793" font-family="Verdana">Enterprise Plus: $42</text><text x="1041.77" y="942.82" fill="#000" font-size="13" textLength="240.608" font-family="Verdana">Vault: $5, Frontline: $6, Colab: $9.99</text><rect x="737.529" y="875.937" width="278.24" height="33.969" fill="#FFF" style="stroke:#000;stroke-width:1;" rx="12.5" ry="12.5"/><text x="747.529" y="897.075" fill="#000" font-size="12" textLength="258.24" font-family="Verdana">Tra unitPrice từ SKU_PRICING[subscription]</text><rect x="743.107" y="970.886" width="267.084" height="33.969" fill="#FFF" style="stroke:#000;stroke-width:1;" rx="12.5" ry="12.5"/><text x="753.107" y="992.024" fill="#000" font-size="12" textLength="247.084" font-family="Verdana">Tính dailyPrice = unitPrice / daysInMonth</text><rect x="714.924" y="1039.854" width="323.451" height="33.969" fill="#FFF" style="stroke:#000;stroke-width:1;" rx="12.5" ry="12.5"/><text x="724.924" y="1060.993" fill="#000" font-size="12" textLength="303.451" font-family="Verdana">Tính amount = dailyPrice × usageDays × quantity</text><rect x="757.114" y="1093.823" width="239.07" height="33.969" fill="#FFF" style="stroke:#000;stroke-width:1;" rx="12.5" ry="12.5"/><text x="767.114" y="1114.962" fill="#000" font-size="12" textLength="219.07" font-family="Verdana">Áp dụng discount và fct từ hợp đồng</text><rect x="739.987" y="1147.792" width="273.324" height="33.969" fill="#FFF" style="stroke:#000;stroke-width:1;" rx="12.5" ry="12.5"/><text x="749.987" y="1168.931" fill="#000" font-size="12" textLength="253.324" font-family="Verdana">priceBeforeVAT = amount + fct - discount</text><rect x="699.962" y="1201.761" width="353.375" height="33.969" fill="#FFF" style="stroke:#000;stroke-width:1;" rx="12.5" ry="12.5"/><text x="709.962" y="1222.899" fill="#000" font-size="12" textLength="333.375" font-family="Verdana">priceVND = floor(priceBeforeVAT × exchangeRateUSD)</text><rect x="746.245" y="1255.729" width="260.809" height="33.969" fill="#FFF" style="stroke:#000;stroke-width:1;" rx="12.5" ry="12.5"/><text x="756.245" y="1276.868" fill="#000" font-size="12" textLength="240.809" font-family="Verdana">priceCalculated = floor(priceVND × 1.1)</text><rect x="1317.377" y="834.956" width="252.389" height="33.969" fill="#FFF" style="stroke:#000;stroke-width:1;" rx="12.5" ry="12.5"/><text x="1327.377" y="856.095" fill="#000" font-size="12" textLength="232.389" font-family="Verdana">Bỏ qua dòng (không thuộc khách Flex)</text><polygon points="1160.111,1295.698,1172.111,1307.698,1160.111,1319.698,1148.111,1307.698,1160.111,1295.698" fill="#FFF" style="stroke:#000;stroke-width:1;stroke-linejoin:miter;stroke-miterlimit:10;"/><polygon points="1160.111,649.019,1172.111,661.019,1160.111,673.019,1148.111,661.019,1160.111,649.019" fill="#FFF" style="stroke:#000;stroke-width:1;stroke-linejoin:miter;stroke-miterlimit:10;"/><polygon points="1114.505,1339.698,1205.717,1339.698,1217.717,1351.698,1205.717,1363.698,1114.505,1363.698,1102.505,1351.698,1114.505,1339.698" fill="#FFF" style="stroke:#000;stroke-width:1;stroke-linejoin:miter;stroke-miterlimit:10;"/><text x="1164.111" y="1373.909" fill="#000" font-size="11" textLength="19.352" font-family="Verdana">Hết</text><text x="1114.505" y="1355.506" fill="#000" font-size="11" textLength="91.212" font-family="Verdana">Còn dòng Excel?</text><text x="1217.717" y="1349.104" fill="#000" font-size="11" textLength="14.411" font-family="Verdana">Có</text><rect x="1073.69" y="1395.409" width="172.842" height="33.969" fill="#FFF" style="stroke:#000;stroke-width:1;" rx="12.5" ry="12.5"/><text x="1083.69" y="1416.547" fill="#000" font-size="12" textLength="152.842" font-family="Verdana">Fill template XLSX output</text><rect x="1087.102" y="1449.377" width="146.018" height="33.969" fill="#FFF" style="stroke:#000;stroke-width:1;" rx="12.5" ry="12.5"/><text x="1097.102" y="1470.516" fill="#000" font-size="12" textLength="126.018" font-family="Verdana">Lưu cost table lên S3</text><line x1="693.962" y1="59.354" x2="693.962" y2="1636.432" style="stroke:#000;stroke-width:1;"/><line x1="1602.766" y1="59.354" x2="1602.766" y2="1636.432" style="stroke:#000;stroke-width:1;"/><line x1="204.798" y1="105.308" x2="204.798" y2="133.589" style="stroke:#000;stroke-width:1;"/><polygon points="200.798,123.589,204.798,133.589,208.798,123.589,204.798,127.589" fill="#000" style="stroke:#000;stroke-width:1;stroke-linejoin:miter;stroke-miterlimit:10;"/><line x1="204.798" y1="167.558" x2="204.798" y2="206.554" style="stroke:#000;stroke-width:1;"/><polygon points="200.798,196.554,204.798,206.554,208.798,196.554,204.798,200.554" fill="#000" style="stroke:#000;stroke-width:1;stroke-linejoin:miter;stroke-miterlimit:10;"/><line x1="204.798" y1="240.522" x2="204.798" y2="271.237" style="stroke:#000;stroke-width:1;"/><polygon points="200.798,261.237,204.798,271.237,208.798,261.237,204.798,265.237" fill="#000" style="stroke:#000;stroke-width:1;stroke-linejoin:miter;stroke-miterlimit:10;"/><line x1="204.798" y1="305.206" x2="204.798" y2="325.206" style="stroke:#000;stroke-width:1;"/><polygon points="200.798,315.206,204.798,325.206,208.798,315.206,204.798,319.206" fill="#000" style="stroke:#000;stroke-width:1;stroke-linejoin:miter;stroke-miterlimit:10;"/><line x1="204.798" y1="1537.315" x2="204.798" y2="1557.315" style="stroke:#000;stroke-width:1;"/><polygon points="200.798,1547.315,204.798,1557.315,208.798,1547.315,204.798,1551.315" fill="#000" style="stroke:#000;stroke-width:1;stroke-linejoin:miter;stroke-miterlimit:10;"/><line x1="204.798" y1="1591.284" x2="204.798" y2="1614.432" style="stroke:#000;stroke-width:1;"/><polygon points="200.798,1604.432,204.798,1614.432,208.798,1604.432,204.798,1608.432" fill="#000" style="stroke:#000;stroke-width:1;stroke-linejoin:miter;stroke-miterlimit:10;"/><line x1="1160.111" y1="413.144" x2="1160.111" y2="433.144" style="stroke:#000;stroke-width:1;"/><polygon points="1156.111,423.144,1160.111,433.144,1164.111,423.144,1160.111,427.144" fill="#000" style="stroke:#000;stroke-width:1;stroke-linejoin:miter;stroke-miterlimit:10;"/><line x1="1160.111" y1="467.112" x2="1160.111" y2="487.112" style="stroke:#000;stroke-width:1;"/><polygon points="1156.111,477.112,1160.111,487.112,1164.111,477.112,1160.111,481.112" fill="#000" style="stroke:#000;stroke-width:1;stroke-linejoin:miter;stroke-miterlimit:10;"/><line x1="1160.111" y1="521.081" x2="1160.111" y2="541.081" style="stroke:#000;stroke-width:1;"/><polygon points="1156.111,531.081,1160.111,541.081,1164.111,531.081,1160.111,535.081" fill="#000" style="stroke:#000;stroke-width:1;stroke-linejoin:miter;stroke-miterlimit:10;"/><line x1="1160.111" y1="575.05" x2="1160.111" y2="595.05" style="stroke:#000;stroke-width:1;"/><polygon points="1156.111,585.05,1160.111,595.05,1164.111,585.05,1160.111,589.05" fill="#000" style="stroke:#000;stroke-width:1;stroke-linejoin:miter;stroke-miterlimit:10;"/><line x1="1160.111" y1="726.987" x2="1160.111" y2="746.987" style="stroke:#000;stroke-width:1;"/><polygon points="1156.111,736.987,1160.111,746.987,1164.111,736.987,1160.111,740.987" fill="#000" style="stroke:#000;stroke-width:1;stroke-linejoin:miter;stroke-miterlimit:10;"/><line x1="876.649" y1="909.905" x2="876.649" y2="970.886" style="stroke:#000;stroke-width:1;"/><polygon points="872.649,960.886,876.649,970.886,880.649,960.886,876.649,964.886" fill="#000" style="stroke:#000;stroke-width:1;stroke-linejoin:miter;stroke-miterlimit:10;"/><line x1="876.649" y1="1004.854" x2="876.649" y2="1039.854" style="stroke:#000;stroke-width:1;"/><polygon points="872.649,1029.854,876.649,1039.854,880.649,1029.854,876.649,1033.854" fill="#000" style="stroke:#000;stroke-width:1;stroke-linejoin:miter;stroke-miterlimit:10;"/><line x1="876.649" y1="1073.823" x2="876.649" y2="1093.823" style="stroke:#000;stroke-width:1;"/><polygon points="872.649,1083.823,876.649,1093.823,880.649,1083.823,876.649,1087.823" fill="#000" style="stroke:#000;stroke-width:1;stroke-linejoin:miter;stroke-miterlimit:10;"/><line x1="876.649" y1="1127.792" x2="876.649" y2="1147.792" style="stroke:#000;stroke-width:1;"/><polygon points="872.649,1137.792,876.649,1147.792,880.649,1137.792,876.649,1141.792" fill="#000" style="stroke:#000;stroke-width:1;stroke-linejoin:miter;stroke-miterlimit:10;"/><line x1="876.649" y1="1181.761" x2="876.649" y2="1201.761" style="stroke:#000;stroke-width:1;"/><polygon points="872.649,1191.761,876.649,1201.761,880.649,1191.761,876.649,1195.761" fill="#000" style="stroke:#000;stroke-width:1;stroke-linejoin:miter;stroke-miterlimit:10;"/><line x1="876.649" y1="1235.729" x2="876.649" y2="1255.729" style="stroke:#000;stroke-width:1;"/><polygon points="872.649,1245.729,876.649,1255.729,880.649,1245.729,876.649,1249.729" fill="#000" style="stroke:#000;stroke-width:1;stroke-linejoin:miter;stroke-miterlimit:10;"/><line x1="1098.584" y1="812.956" x2="876.649" y2="812.956" style="stroke:#000;stroke-width:1;"/><line x1="876.649" y1="812.956" x2="876.649" y2="875.937" style="stroke:#000;stroke-width:1;"/><polygon points="872.649,865.937,876.649,875.937,880.649,865.937,876.649,869.937" fill="#000" style="stroke:#000;stroke-width:1;stroke-linejoin:miter;stroke-miterlimit:10;"/><line x1="1221.637" y1="812.956" x2="1443.572" y2="812.956" style="stroke:#000;stroke-width:1;"/><line x1="1443.572" y1="812.956" x2="1443.572" y2="834.956" style="stroke:#000;stroke-width:1;"/><polygon points="1439.572,824.956,1443.572,834.956,1447.572,824.956,1443.572,828.956" fill="#000" style="stroke:#000;stroke-width:1;stroke-linejoin:miter;stroke-miterlimit:10;"/><line x1="876.649" y1="1289.698" x2="876.649" y2="1307.698" style="stroke:#000;stroke-width:1;"/><line x1="876.649" y1="1307.698" x2="1148.111" y2="1307.698" style="stroke:#000;stroke-width:1;"/><polygon points="1138.111,1303.698,1148.111,1307.698,1138.111,1311.698,1142.111,1307.698" fill="#000" style="stroke:#000;stroke-width:1;stroke-linejoin:miter;stroke-miterlimit:10;"/><line x1="1443.572" y1="868.925" x2="1443.572" y2="1307.698" style="stroke:#000;stroke-width:1;"/><line x1="1443.572" y1="1307.698" x2="1172.111" y2="1307.698" style="stroke:#000;stroke-width:1;"/><polygon points="1182.111,1303.698,1172.111,1307.698,1182.111,1311.698,1178.111,1307.698" fill="#000" style="stroke:#000;stroke-width:1;stroke-linejoin:miter;stroke-miterlimit:10;"/><line x1="1160.111" y1="780.956" x2="1160.111" y2="800.956" style="stroke:#000;stroke-width:1;"/><polygon points="1156.111,790.956,1160.111,800.956,1164.111,790.956,1160.111,794.956" fill="#000" style="stroke:#000;stroke-width:1;stroke-linejoin:miter;stroke-miterlimit:10;"/><line x1="1160.111" y1="673.019" x2="1160.111" y2="693.019" style="stroke:#000;stroke-width:1;"/><polygon points="1156.111,683.019,1160.111,693.019,1164.111,683.019,1160.111,687.019" fill="#000" style="stroke:#000;stroke-width:1;stroke-linejoin:miter;stroke-miterlimit:10;"/><line x1="1217.717" y1="1351.698" x2="1583.766" y2="1351.698" style="stroke:#000;stroke-width:1;"/><polygon points="1579.766,1023.858,1583.766,1013.858,1587.766,1023.858,1583.766,1019.858" fill="#000" style="stroke:#000;stroke-width:1;stroke-linejoin:miter;stroke-miterlimit:10;"/><line x1="1583.766" y1="661.019" x2="1583.766" y2="1351.698" style="stroke:#000;stroke-width:1;"/><line x1="1583.766" y1="661.019" x2="1172.111" y2="661.019" style="stroke:#000;stroke-width:1;"/><polygon points="1182.111,657.019,1172.111,661.019,1182.111,665.019,1178.111,661.019" fill="#000" style="stroke:#000;stroke-width:1;stroke-linejoin:miter;stroke-miterlimit:10;"/><line x1="1160.111" y1="1319.698" x2="1160.111" y2="1339.698" style="stroke:#000;stroke-width:1;"/><polygon points="1156.111,1329.698,1160.111,1339.698,1164.111,1329.698,1160.111,1333.698" fill="#000" style="stroke:#000;stroke-width:1;stroke-linejoin:miter;stroke-miterlimit:10;"/><line x1="1160.111" y1="629.019" x2="1160.111" y2="649.019" style="stroke:#000;stroke-width:1;"/><polygon points="1156.111,639.019,1160.111,649.019,1164.111,639.019,1160.111,643.019" fill="#000" style="stroke:#000;stroke-width:1;stroke-linejoin:miter;stroke-miterlimit:10;"/><line x1="1160.111" y1="1363.698" x2="1160.111" y2="1395.409" style="stroke:#000;stroke-width:1;"/><polygon points="1156.111,1385.409,1160.111,1395.409,1164.111,1385.409,1160.111,1389.409" fill="#000" style="stroke:#000;stroke-width:1;stroke-linejoin:miter;stroke-miterlimit:10;"/><line x1="1160.111" y1="1429.377" x2="1160.111" y2="1449.377" style="stroke:#000;stroke-width:1;"/><polygon points="1156.111,1439.377,1160.111,1449.377,1164.111,1439.377,1160.111,1443.377" fill="#000" style="stroke:#000;stroke-width:1;stroke-linejoin:miter;stroke-miterlimit:10;"/><line x1="204.798" y1="359.175" x2="204.798" y2="364.175" style="stroke:#000;stroke-width:1;"/><line x1="204.798" y1="364.175" x2="1160.111" y2="364.175" style="stroke:#000;stroke-width:1;"/><line x1="1160.111" y1="364.175" x2="1160.111" y2="379.175" style="stroke:#000;stroke-width:1;"/><polygon points="1156.111,369.175,1160.111,379.175,1164.111,369.175,1160.111,373.175" fill="#000" style="stroke:#000;stroke-width:1;stroke-linejoin:miter;stroke-miterlimit:10;"/><line x1="1160.111" y1="1483.346" x2="1160.111" y2="1488.346" style="stroke:#000;stroke-width:1;"/><line x1="1160.111" y1="1488.346" x2="204.798" y2="1488.346" style="stroke:#000;stroke-width:1;"/><line x1="204.798" y1="1488.346" x2="204.798" y2="1503.346" style="stroke:#000;stroke-width:1;"/><polygon points="200.798,1493.346,204.798,1503.346,208.798,1493.346,204.798,1497.346" fill="#000" style="stroke:#000;stroke-width:1;stroke-linejoin:miter;stroke-miterlimit:10;"/><text x="319.927" y="76.063" fill="#000" font-size="18" textLength="69.108" font-family="Verdana">Kế toán</text><text x="1080.921" y="76.063" fill="#000" font-size="18" textLength="134.886" font-family="Verdana">ERP / Hệ thống</text><?plantuml-src TLLTQzn657tNhxY5FkoIxJfsKXFBk2NUjHrZnsozjXi8mSoEPbU3fP4gZMml-A4bqDA7Kj8MGZ2bDI44seQcSLzYFVH19Vz3-IKzCvBjTK9Vn8pkd7C_vjup7sXVX8BYW4dbQAa3GLl52-KJV_Eop8yvhNpUf-L07DBRBt-YJd-7LiCuIZHTe_xQDlKIoQKQOTTBeeHf6Id7ELehp_uX7HKdwiX9DKkquswLPq-bnT-DbFQ3CNM5PZAWJM7fT9d_JZqSLIAXFWj4Ifr8fL4WvXr7HLfG8aU-TfOb8ZGqepB_CIHUd73YPVv4kqut2f44AHQA5lMpGSeJ6Pk8Ml1rkN4-ovX2fcCSCh6HnpG0IyghLxV3A5EwvNIoL4SXmbdjjcoogrr7u9I9nd7SzJB_ZfFso_mvmlXRZLmwB4uPUSKh5AGJXQ7KMdWckkUCzdn4wb_-lffLftWDZ5Sbi8zIiAhcrR82kGw7hszf9ClyJzfEsGYnReW3ujOS2XlpnPgauebWgQ16bH1zGjURambq_6nSvW-LBUVRht-WfKCk0cgq3uDqodmEc_EEknq74VDeQEeU5ByfGX3VsBGVgH6oE5hQxD4KtPduU-Iuk4buhWZjrLPLcRvEZNHFnZHN__05yr1XgVOZoONnrulYshRItvhQkRr5F0EhH8rV6uVk3WkakIYN9YuSj3f18pRHYNMw3PM50v60qzpLsRCn2gLqmhXEmNLgMbxHWgsp722v7lQ67bqlAIppn_82qAB04jGNP1CQyNWtJkG-8hd_e3qwI7ShAzmb8XPCEqHNoAgaT1BXQmipRqvi5N-4vxnxADznR2xz-D8tNT0IoI4rB025lepdqoRsGb6ZKvmsSSgm9emo9RKPJr75YmRUxMskTbOtLkwd4yFnm38JJNIZsIvYNX7eI1OdvBF4uv4dtCgIfLA9DAscHoGkVNYhVVCza_A0Wcrwjdthgh4NP2aCCxCrQac11QL4mqpWRioyRwwHDsUiOOTbWSRsunOjewew03ssioqCJC06MCwrv-RiqSkkhyfZ5Sw3_8oh2YrCL6iAXd6wggnEpKy2MDLO2vF8uZ5bPXIxm9ZD5xMurC3YAtHpcJypqorJRl7xnQyqvBNauSgVnlJl8wYPwMuBYWtpeXX6YJ3zlt3k-9g5VNJ1D7byPwEBWyCWYfB6EtX49GwvpzH8RA9Rj_lTvYIommAU1Sn8rHK2mmZeT7lQ7XU1aP8rtoXTtMMBPVwzIRXkxSQUDQ8PCR1F-BdacG6h69GdX_Lmq85l10Kj-qhLS3iJw6MPLfriBemQT_2Kw2P66C8FAH5XR4AbU-lzUnHbEivG1NVzpSiC0vEYfcnmhbFz6_FlF4Nk6gJp8QO7qv52KwZXMTtLIPd_nMslSr80PES3Di0NfBvv2tz6tl2rKkOl98dGl5s3QaZCxK6WKdZHnFseplogn5y6GjfeYA7y1M0RIEUknU6jRTKgptt1zq0a_oUKzeIIuvcA_mC0?></g></svg>